<svg width="192" height="32" viewBox="0 0 192 32" xmlns="http://www.w3.org/2000/svg" shape-rendering="crispEdges">
  <g transform="translate(0,0)">
    <rect x="12" y="4" width="8" height="8" fill="#d8a47f"/>
    <rect x="12" y="12" width="8" height="8" fill="#7a3b3b"/>
    <rect x="14" y="20" width="4" height="6" fill="#2b3a67"/>
    <rect x="10" y="20" width="2" height="6" fill="#111"/>
    <rect x="20" y="20" width="2" height="4" fill="#111"/>
    <rect x="10" y="14" width="4" height="2" fill="#d8a47f"/>
  </g>

  <g transform="translate(32,0)">
    <rect x="12" y="4" width="8" height="8" fill="#d8a47f"/>
    <rect x="12" y="12" width="8" height="8" fill="#7a3b3b"/>
    <rect x="14" y="20" width="4" height="6" fill="#2b3a67"/>
    <rect x="20" y="20" width="2" height="6" fill="#111"/>
    <rect x="10" y="20" width="2" height="4" fill="#111"/>
    <rect x="18" y="14" width="4" height="2" fill="#d8a47f"/>
  </g>

  <g transform="translate(64,0)">
    <rect x="12" y="4" width="8" height="8" fill="#d8a47f"/>
    <rect x="12" y="12" width="8" height="8" fill="#7a3b3b"/>
    <rect x="13" y="20" width="3" height="6" fill="#2b3a67"/>
    <rect x="18" y="20" width="3" height="6" fill="#2b3a67"/>
    <rect x="10" y="14" width="3" height="2" fill="#d8a47f"/>
    <rect x="19" y="14" width="3" height="2" fill="#d8a47f"/>
  </g>

  <g transform="translate(96,0)">
    <rect x="12" y="4" width="8" height="8" fill="#d8a47f"/>
    <rect x="12" y="12" width="8" height="8" fill="#7a3b3b"/>
    <rect x="14" y="20" width="4" height="6" fill="#2b3a67"/>
    <rect x="10" y="20" width="2" height="6" fill="#111"/>
    <rect x="20" y="20" width="2" height="4" fill="#111"/>
    <rect x="18" y="14" width="4" height="2" fill="#d8a47f"/>
  </g>

  <g transform="translate(128,0)">
    <rect x="12" y="4" width="8" height="8" fill="#d8a47f"/>
    <rect x="12" y="12" width="8" height="8" fill="#7a3b3b"/>
    <rect x="14" y="20" width="4" height="6" fill="#2b3a67"/>
    <rect x="20" y="20" width="2" height="6" fill="#111"/>
    <rect x="10" y="20" width="2" height="4" fill="#111"/>
    <rect x="10" y="14" width="4" height="2" fill="#d8a47f"/>
  </g>

  <g transform="translate(160,0)">
    <rect x="12" y="4" width="8" height="8" fill="#d8a47f"/>
    <rect x="12" y="12" width="8" height="8" fill="#7a3b3b"/>
    <rect x="13" y="20" width="3" height="6" fill="#2b3a67"/>
    <rect x="18" y="20" width="3" height="6" fill="#2b3a67"/>
    <rect x="10" y="14" width="3" height="2" fill="#d8a47f"/>
    <rect x="19" y="14" width="3" height="2" fill="#d8a47f"/>
  </g>
</svg>
